<?xml version="1.0" encoding="UTF-8" standalone="no"?>
<svg
   xmlns:dc="http://purl.org/dc/elements/1.1/"
   xmlns:cc="http://creativecommons.org/ns#"
   xmlns:rdf="http://www.w3.org/1999/02/22-rdf-syntax-ns#"
   xmlns:svg="http://www.w3.org/2000/svg"
   xmlns="http://www.w3.org/2000/svg"
   xmlns:xlink="http://www.w3.org/1999/xlink"
   width="372.27805mm"
   height="64.297363mm"
   viewBox="0 0 372.27805 64.297363"
   version="1.1"
   id="svg8">
  <defs
     id="defs2">
    <linearGradient
       id="linearGradient1149">
      <stop
         style="stop-color:#b1060f;stop-opacity:1"
         offset="0"
         id="stop1145" />
      <stop
         style="stop-color:#e50913;stop-opacity:1"
         offset="1"
         id="stop1147" />
    </linearGradient>
    <linearGradient
       xlink:href="#linearGradient1149"
       id="linearGradient303-0"
       gradientUnits="userSpaceOnUse"
       gradientTransform="matrix(7.5429766,0,0,7.5429766,-581.77019,-2022.7908)"
       x1="83.471451"
       y1="295.65842"
       x2="123.04269"
       y2="295.65842" />
  </defs>
  <metadata
     id="metadata5">
    <rdf:RDF>
      <cc:Work
         rdf:about="">
        <dc:format>image/svg+xml</dc:format>
        <dc:type
           rdf:resource="http://purl.org/dc/dcmitype/StillImage" />
        <dc:title></dc:title>
      </cc:Work>
    </rdf:RDF>
  </metadata>
  <g
     id="layer1"
     transform="translate(128.72181,-78.642291)">
    <g
       style="fill:#e5e5e5;fill-opacity:1;"
       id="g50"
       transform="translate(-128.72181,78.642291)">
      <g
         id="layer1-0"
         transform="translate(-289.37251,-31.121614)"
         style="fill:#e5e5e5;fill-opacity:1">
        <g
           id="text1281"
           style="font-style:normal;font-weight:normal;font-size:10.5833px;line-height:1.25;font-family:sans-serif;fill:#e5e5e5;fill-opacity:1;stroke:none;stroke-width:0.264583;" />
        <g
           id="text1281-6"
           style="font-style:normal;font-weight:normal;font-size:10.5833px;line-height:1.25;font-family:sans-serif;fill:#e5e5e5;fill-opacity:1;stroke:none;stroke-width:0.264583;" />
        <path
           id="path1437"
           style="font-style:normal;font-variant:normal;font-weight:bold;font-stretch:normal;font-size:66.2111px;line-height:1.25;font-family:Sk-Modernist;-inkscape-font-specification:'Sk-Modernist Bold';fill:#e5e5e5;fill-opacity:1;stroke:none;stroke-width:6.25618;"
           d="m 2212.4629,117.625 -2.8164,91.03906 c -9.2758,-10.47181 -25.8814,-17.85343 -41.1426,-18.19726 -39.5292,-0.8906 -66.6445,25.02966 -67.5351,64.55859 -0.8906,39.52893 25.0314,66.64652 64.5605,67.53711 15.2612,0.34382 32.18,-6.28274 41.918,-16.32617 l -0.3086,13.75976 30.0215,0.67579 5.3261,-202.3711 z M 1093.6914,140.67969 V 318.0625 h 19.0059 v -20.27148 c 9.3759,13.68378 24.3269,22.29882 45.3593,22.29882 36.9969,0 61.3243,-29.14027 61.3243,-65.37695 0,-36.23668 -24.3274,-65.37891 -61.3243,-65.37891 -21.0324,0 -35.9834,8.86896 -45.3593,22.55274 v -71.20703 z m 378.5195,5.41211 v 45.35937 h -25.8476 v 16.72461 h 25.8476 v 109.97656 h 19.0039 V 208.17578 h 29.1426 v -16.72461 h -29.1426 V 146.0918 Z m 55.9961,0.28906 v 171.66992 h 116.3653 v -30.0293 h -82.8321 v -43.04296 h 73.8243 v -30.0293 h -73.8243 v -38.53906 h 82.8321 v -30.0293 z m 273.3203,0.19726 v 27.52735 h 30.0293 v -27.52735 z m -75.2812,39.15821 c -15.2648,-0.0982 -32.0772,6.80125 -41.6523,17 l 0.09,-13.76367 -30.0293,-0.19141 -1.1035,171.66406 30.0273,0.19336 0.3887,-60.30859 c 9.4432,10.32106 26.1649,17.43698 41.4297,17.53515 39.5381,0.25429 66.234,-26.10051 66.4883,-65.63867 0.2543,-39.53815 -26.1006,-66.23596 -65.6387,-66.49023 z m 299.3848,1.90234 a 66.516794,66.516794 0 0 0 -66.5157,66.51758 66.516794,66.516794 0 0 0 66.5157,66.51563 66.516794,66.516794 0 0 0 66.5175,-66.51563 66.516794,66.516794 0 0 0 -66.5175,-66.51758 z m -742.6563,1.19531 c -38.7707,0 -62.8437,29.14028 -62.8437,65.37696 0,36.23668 25.3406,65.3789 64.1113,65.3789 30.155,0 48.9063,-15.71127 57.7754,-38.51757 h -20.7793 c -6.8419,12.67016 -19.0059,21.28515 -36.7442,21.28515 -25.5937,0 -42.0641,-17.99202 -44.8515,-40.54492 h 106.1758 v -7.60156 c 0,-36.23668 -24.0731,-65.37696 -62.8438,-65.37696 z m 612.8242,0.0274 c -30.2798,0 -50.5508,15.51612 -50.5508,38.78906 0,20.77047 11.5112,29.02897 47.7969,37.28711 23.273,4.50444 30.7813,8.75775 30.7813,14.76367 0,9.75962 -11.2608,16.26563 -28.0274,16.26563 -16.7665,0 -28.7783,-8.5072 -29.7793,-21.01953 h -28.2793 c 1.001,27.52713 24.2753,46.04492 58.0586,46.04492 34.7843,0 58.0567,-16.5166 58.0567,-41.29102 0,-22.77245 -13.2635,-32.28238 -55.0547,-41.04101 -17.7675,-4.00395 -23.5235,-7.25654 -23.5235,-12.51172 0,-7.25716 8.2595,-12.26172 20.5215,-12.26172 11.0109,0 21.0198,5.75529 24.7735,14.26367 l 27.5273,-6.75586 c -7.2571,-19.51924 -28.2771,-32.5332 -52.3008,-32.5332 z m 546.8711,0.10156 c -30.2799,0 -50.5508,15.51612 -50.5508,38.78906 0,20.77048 11.5111,29.02702 47.7969,37.28516 23.273,4.50444 30.7813,8.75971 30.7813,14.76562 0,9.75963 -11.2609,16.26563 -28.0274,16.26563 -16.7665,0 -28.7783,-8.50915 -29.7793,-21.02148 h -28.2793 c 1.001,27.52713 24.2753,46.04687 58.0586,46.04687 34.7843,0 58.0567,-16.51659 58.0567,-41.29102 0,-22.77244 -13.2635,-32.28238 -55.0547,-41.04101 -17.7675,-4.00395 -23.5235,-7.25654 -23.5235,-12.51172 0,-7.25715 8.2594,-12.26172 20.5215,-12.26172 11.0108,0 21.0198,5.75529 24.7735,14.26367 l 27.5273,-6.75781 c -7.2571,-19.51924 -28.2771,-32.53125 -52.3008,-32.53125 z m -127.7441,0.0195 c -40.7902,0 -67.8164,26.52548 -67.8164,66.06446 0,39.53897 27.0262,66.0664 67.8164,66.0664 30.5301,0 56.5563,-18.51974 64.8144,-46.04687 h -30.5293 c -5.7557,12.51233 -19.5206,21.02148 -34.2851,21.02148 -19.5193,0 -34.5344,-13.01371 -37.2871,-32.7832 h 102.6015 l 2.5039,-2.50196 v -5.75585 c 0,-39.53898 -27.0281,-66.06446 -67.8183,-66.06446 z m -917.666,0.14649 c -32.6891,0 -49.668,13.43002 -49.668,36.23632 0,46.37282 84.3828,26.60779 84.3828,58.28321 0,17.23142 -22.046,20.01953 -32.4355,20.01953 -24.5802,0 -34.2096,-12.67018 -35.4766,-25.59375 h -19.7637 c 1.267,22.29949 19.7652,41.81055 54.9883,41.81055 31.422,0 51.6934,-13.42964 51.6934,-38.00977 0,-47.63983 -84.3828,-27.8748 -84.3828,-58.2832 0,-12.41677 10.3888,-18.24414 30.1543,-18.24414 21.2858,0 29.3955,8.86928 30.916,19.76562 h 19.2578 c -2.2807,-18.49844 -16.2168,-35.98437 -49.666,-35.98437 z m 404.2675,3.99414 v 125.12304 h 30.0293 V 193.12305 Z m -518.5527,12.9414 c 24.3267,0 39.5305,16.47048 43.0781,38.00977 h -86.1562 c 3.5476,-21.53929 18.7514,-38.00977 43.0781,-38.00977 z m -127.4512,0.50196 c 28.1278,0 44.8516,22.04594 44.8516,48.14648 0,26.10054 -16.7238,48.14649 -44.8516,48.14649 -28.1277,0 -43.8398,-22.04595 -43.8398,-48.14649 0,-26.10054 15.7121,-48.14648 43.8398,-48.14648 z m 567.5489,5.67773 c 23.5226,0.15126 38.9361,16.01612 38.7832,39.78906 -0.1527,23.77295 -15.7684,39.43839 -39.291,39.28711 -23.0223,-0.14804 -38.4361,-16.01416 -38.2833,-39.78711 0.1531,-23.77293 15.7688,-39.43712 38.7911,-39.28906 z m 280.3711,1.29688 c 4.7285,-0.29972 69.5458,38.42261 69.5,41.61718 -0.046,3.24526 -68.0546,41.22148 -70.8418,39.5586 -2.7873,-1.663 -1.6717,-79.54849 1.1621,-81.13086 0.045,-0.0265 0.1048,-0.0408 0.1797,-0.0449 z m 311.4824,0.46679 c 16.7665,0 29.5295,8.75815 35.2851,24.27344 h -70.5703 c 5.7557,-15.51529 18.5187,-24.27344 35.2852,-24.27344 z m -146.1992,3.04102 c 0.7197,-0.0144 1.4486,-0.0127 2.1836,0.004 23.017,0.51858 38.1722,16.62916 37.6367,40.39649 -0.5355,23.76733 -16.401,39.18068 -39.418,38.66211 -23.5172,-0.52985 -38.6741,-16.64088 -38.1387,-40.40821 0.5188,-23.0246 15.4245,-38.20952 37.7364,-38.65429 z"
           transform="scale(0.26458333)" />
      </g>
    </g>
  </g>
</svg>
