<?xml version="1.0" encoding="UTF-8" standalone="no"?>
<svg
   xmlns:dc="http://purl.org/dc/elements/1.1/"
   xmlns:cc="http://creativecommons.org/ns#"
   xmlns:rdf="http://www.w3.org/1999/02/22-rdf-syntax-ns#"
   xmlns:svg="http://www.w3.org/2000/svg"
   xmlns="http://www.w3.org/2000/svg"
   xmlns:sodipodi="http://sodipodi.sourceforge.net/DTD/sodipodi-0.dtd"
   xmlns:inkscape="http://www.inkscape.org/namespaces/inkscape"
   id="Layer_2"
   data-name="Layer 2"
   viewBox="0 0 110 55"
   version="1.1"
   sodipodi:docname="adult_swim.svg"
   width="110"
   height="55"
   inkscape:version="0.92.3 (2405546, 2018-03-11)">
  <metadata
     id="metadata35">
    <rdf:RDF>
      <cc:Work
         rdf:about="">
        <dc:format>image/svg+xml</dc:format>
        <dc:type
           rdf:resource="http://purl.org/dc/dcmitype/StillImage" />
      </cc:Work>
    </rdf:RDF>
  </metadata>
  <sodipodi:namedview
     pagecolor="#ffffff"
     bordercolor="#666666"
     borderopacity="1"
     objecttolerance="10"
     gridtolerance="10"
     guidetolerance="10"
     inkscape:pageopacity="0"
     inkscape:pageshadow="2"
     inkscape:window-width="640"
     inkscape:window-height="480"
     id="namedview33"
     showgrid="false"
     inkscape:zoom="2.4912281"
     inkscape:cx="56"
     inkscape:cy="26.5"
     inkscape:window-x="0"
     inkscape:window-y="0"
     inkscape:window-maximized="0"
     inkscape:current-layer="Layer_2" />
  <defs
     id="defs4">
    <style
       id="style2">.cls-1{fill:#fff;}</style>
  </defs>
  <title
     id="title6">Artboard 361</title>
  <rect
     x="0"
     y="0"
     width="110"
     height="55"
     id="rect8" />
  <path
     class="cls-1"
     d="m 15.58,26 a 3.35,3.35 0 0 1 0.27,-1.43 2.5,2.5 0 0 1 0.73,-0.93 2.9,2.9 0 0 1 1.08,-0.51 5.5,5.5 0 0 1 1.34,-0.19 6.13,6.13 0 0 1 1.81,0.22 2.46,2.46 0 0 1 1.07,0.62 2.08,2.08 0 0 1 0.51,1 5.09,5.09 0 0 1 0.14,1.21 v 5.14 a 7,7 0 0 0 0.06,1.07 3.74,3.74 0 0 0 0.24,0.82 h -2.4 a 2.14,2.14 0 0 1 -0.19,-0.51 q -0.06,-0.27 -0.12,-0.53 v 0 a 2.13,2.13 0 0 1 -1,1 4,4 0 0 1 -1.47,0.23 2.44,2.44 0 0 1 -1.1,-0.23 1.87,1.87 0 0 1 -0.72,-0.63 2.82,2.82 0 0 1 -0.4,-0.9 4,4 0 0 1 -0.13,-1 4.32,4.32 0 0 1 0.14,-1.19 2.3,2.3 0 0 1 0.44,-0.86 2.43,2.43 0 0 1 0.76,-0.59 6,6 0 0 1 1.11,-0.42 L 19.13,27 a 1.51,1.51 0 0 0 0.78,-0.4 1.12,1.12 0 0 0 0.22,-0.75 1.36,1.36 0 0 0 -0.26,-0.88 1.08,1.08 0 0 0 -0.89,-0.32 1,1 0 0 0 -0.86,0.35 1.44,1.44 0 0 0 -0.29,0.94 v 0.28 h -2.25 z m 4,2.43 a 3.54,3.54 0 0 1 -0.52,0.17 1.92,1.92 0 0 0 -1.09,0.54 1.54,1.54 0 0 0 -0.33,1 2,2 0 0 0 0.22,1 0.76,0.76 0 0 0 0.72,0.4 1.82,1.82 0 0 0 0.52,-0.08 1.47,1.47 0 0 0 0.5,-0.26 1.38,1.38 0 0 0 0.37,-0.47 1.53,1.53 0 0 0 0.14,-0.69 v -1.96 a 2.24,2.24 0 0 1 -0.52,0.32 z"
     id="path10"
     inkscape:connector-curvature="0"
     style="fill:#ffffff" />
  <path
     class="cls-1"
     d="m 29.17,31.94 a 2.49,2.49 0 0 1 -1,1 2.87,2.87 0 0 1 -1.3,0.27 2.53,2.53 0 0 1 -2.27,-1.21 7.69,7.69 0 0 1 -0.74,-3.91 7.84,7.84 0 0 1 0.74,-3.93 2.53,2.53 0 0 1 2.32,-1.21 2.47,2.47 0 0 1 1.23,0.29 2.88,2.88 0 0 1 0.92,0.87 v 0 V 20 h 2.58 v 13 h -2.44 v -1 z m -2.48,-1.47 a 1,1 0 0 0 1.08,0.81 1,1 0 0 0 1.1,-0.81 8.74,8.74 0 0 0 0.25,-2.41 8.74,8.74 0 0 0 -0.25,-2.41 1,1 0 0 0 -1.1,-0.81 1,1 0 0 0 -1.08,0.81 8.72,8.72 0 0 0 -0.25,2.41 8.73,8.73 0 0 0 0.25,2.42 z"
     id="path12"
     inkscape:connector-curvature="0"
     style="fill:#ffffff" />
  <path
     class="cls-1"
     d="m 38.28,31.83 a 2.33,2.33 0 0 1 -1,1 3.3,3.3 0 0 1 -1.44,0.3 2.52,2.52 0 0 1 -1.84,-0.59 2.85,2.85 0 0 1 -0.64,-2.1 v -7.25 h 2.51 v 6.73 a 1.68,1.68 0 0 0 0.22,1.08 1,1 0 0 0 0.81,0.3 q 1.32,0 1.32,-1.62 v -6.49 h 2.51 V 33 h -2.41 v -1.17 z"
     id="path14"
     inkscape:connector-curvature="0"
     style="fill:#ffffff" />
  <path
     class="cls-1"
     d="M 45,20 V 33 H 42.47 V 20 Z"
     id="path16"
     inkscape:connector-curvature="0"
     style="fill:#ffffff" />
  <path
     class="cls-1"
     d="m 50,20.4 v 2.79 h 1.52 v 1.69 H 50 v 5.31 a 1.44,1.44 0 0 0 0.18,0.83 0.9,0.9 0 0 0 0.75,0.25 h 0.3 0.29 V 33 q -0.44,0 -0.85,0 -0.41,0 -0.87,0 A 6.45,6.45 0 0 1 48.55,32.9 1.28,1.28 0 0 1 47.8,32.5 1.7,1.7 0 0 1 47.45,31.71 6.64,6.64 0 0 1 47.35,30.47 V 24.88 H 46 v -1.69 h 1.33 V 20.4 Z"
     id="path18"
     inkscape:connector-curvature="0"
     style="fill:#ffffff" />
  <path
     class="cls-1"
     d="m 57.47,30.1 a 1.46,1.46 0 0 0 0.35,1 1.29,1.29 0 0 0 1,0.39 1.49,1.49 0 0 0 1,-0.29 1.06,1.06 0 0 0 0.36,-0.87 0.89,0.89 0 0 0 -0.29,-0.72 2.26,2.26 0 0 0 -0.67,-0.39 l -1.85,-0.64 a 3.53,3.53 0 0 1 -1.64,-1 2.56,2.56 0 0 1 -0.55,-1.7 3.07,3.07 0 0 1 0.21,-1.13 2.39,2.39 0 0 1 0.67,-0.93 3.39,3.39 0 0 1 1.18,-0.64 5.61,5.61 0 0 1 1.73,-0.24 4.06,4.06 0 0 1 2.66,0.73 2.56,2.56 0 0 1 0.86,2.07 v 0.4 H 60.08 A 2,2 0 0 0 59.82,25 a 1,1 0 0 0 -0.91,-0.36 1.48,1.48 0 0 0 -0.87,0.26 0.91,0.91 0 0 0 -0.37,0.79 1,1 0 0 0 0.24,0.65 1.85,1.85 0 0 0 0.91,0.49 l 1.58,0.51 a 3.61,3.61 0 0 1 1.76,1 2.74,2.74 0 0 1 0.52,1.76 3,3 0 0 1 -0.29,1.36 2.68,2.68 0 0 1 -0.79,1 3.15,3.15 0 0 1 -1.2,0.55 6.71,6.71 0 0 1 -1.53,0.16 A 7.17,7.17 0 0 1 57,33 a 2.72,2.72 0 0 1 -1.16,-0.6 2.15,2.15 0 0 1 -0.6,-1 4.44,4.44 0 0 1 -0.17,-1.28 v -0.34 h 2.38 z"
     id="path20"
     inkscape:connector-curvature="0"
     style="fill:#ffffff" />
  <path
     class="cls-1"
     d="m 65.54,23.19 1.21,7 v 0 l 1.29,-7 H 71 l 1.37,7 v 0 l 1.25,-7 h 2.54 L 73.94,33 h -3 l -1.37,-7 v 0 l -1.29,7 h -3.14 l -2.25,-9.79 z"
     id="path22"
     inkscape:connector-curvature="0"
     style="fill:#ffffff" />
  <path
     class="cls-1"
     d="M 80,19.83 V 22 h -2.87 v -2.17 z m 0,3.36 V 33 h -2.87 v -9.81 z"
     id="path24"
     inkscape:connector-curvature="0"
     style="fill:#ffffff" />
  <path
     class="cls-1"
     d="m 83.8,23.19 v 1 0 a 2.92,2.92 0 0 1 1.09,-1 3.31,3.31 0 0 1 1.44,-0.29 2.75,2.75 0 0 1 1.52,0.4 1.93,1.93 0 0 1 0.82,1.16 h 0.05 a 2.22,2.22 0 0 1 1,-1.16 3,3 0 0 1 1.57,-0.39 2.32,2.32 0 0 1 1.91,0.76 3.37,3.37 0 0 1 0.61,2.17 V 33 h -2.58 v -6.87 a 1.61,1.61 0 0 0 -0.24,-0.95 0.89,0.89 0 0 0 -0.78,-0.33 1.27,1.27 0 0 0 -1,0.4 1.85,1.85 0 0 0 -0.37,1.28 V 33 h -2.57 v -6.87 a 1.62,1.62 0 0 0 -0.24,-0.95 0.89,0.89 0 0 0 -0.78,-0.33 1.27,1.27 0 0 0 -1,0.4 1.86,1.86 0 0 0 -0.37,1.28 V 33 h -2.56 v -9.81 z"
     id="path26"
     inkscape:connector-curvature="0"
     style="fill:#ffffff" />
  <polygon
     class="cls-1"
     points="15.69,23.2 13.85,23.2 13.85,35.39 15.69,35.39 15.69,37.47 11.1,37.47 11.1,21.13 15.69,21.13 "
     id="polygon28"
     style="fill:#ffffff"
     transform="translate(-1,-1)" />
  <polygon
     class="cls-1"
     points="95.73,35.39 97.57,35.39 97.57,23.2 95.73,23.2 95.73,21.13 100.32,21.13 100.32,37.47 95.73,37.47 "
     id="polygon30"
     style="fill:#ffffff"
     transform="translate(-1,-1)" />
</svg>
