<?xml version="1.0" encoding="UTF-8" standalone="no"?>
<svg
   xmlns:dc="http://purl.org/dc/elements/1.1/"
   xmlns:cc="http://creativecommons.org/ns#"
   xmlns:rdf="http://www.w3.org/1999/02/22-rdf-syntax-ns#"
   xmlns:svg="http://www.w3.org/2000/svg"
   xmlns="http://www.w3.org/2000/svg"
   xmlns:sodipodi="http://sodipodi.sourceforge.net/DTD/sodipodi-0.dtd"
   xmlns:inkscape="http://www.inkscape.org/namespaces/inkscape"
   id="Layer_2"
   data-name="Layer 2"
   viewBox="0 0 110 55"
   version="1.1"
   sodipodi:docname="cbs.svg"
   width="110"
   height="55"
   inkscape:version="0.92.3 (2405546, 2018-03-11)">
  <metadata
     id="metadata21">
    <rdf:RDF>
      <cc:Work
         rdf:about="">
        <dc:format>image/svg+xml</dc:format>
        <dc:type
           rdf:resource="http://purl.org/dc/dcmitype/StillImage" />
      </cc:Work>
    </rdf:RDF>
  </metadata>
  <sodipodi:namedview
     pagecolor="#ffffff"
     bordercolor="#666666"
     borderopacity="1"
     objecttolerance="10"
     gridtolerance="10"
     guidetolerance="10"
     inkscape:pageopacity="0"
     inkscape:pageshadow="2"
     inkscape:window-width="640"
     inkscape:window-height="480"
     id="namedview19"
     showgrid="false"
     inkscape:zoom="2.4912281"
     inkscape:cx="55.92"
     inkscape:cy="26.5"
     inkscape:window-x="0"
     inkscape:window-y="0"
     inkscape:window-maximized="0"
     inkscape:current-layer="Layer_2" />
  <defs
     id="defs4">
    <style
       id="style2">.cls-1{fill:#1793ef;}.cls-2{fill:#fff;}</style>
  </defs>
  <title
     id="title6">Artboard 7 copy 16</title>
  <rect
     class="cls-1"
     x="0"
     y="0"
     width="110"
     height="55"
     id="rect8"
     style="fill:#1793ef" />
  <path
     class="cls-2"
     d="m 14.65,27.76 c 0,-6.11 4.68,-10.23 10.88,-10.23 a 9.22,9.22 0 0 1 9,5.75 l -5.16,2.4 a 4.19,4.19 0 0 0 -3.82,-2.88 4.73,4.73 0 0 0 -4.8,5 4.73,4.73 0 0 0 4.8,5 4.19,4.19 0 0 0 3.82,-2.88 l 5.16,2.37 a 9.33,9.33 0 0 1 -9,5.78 c -6.19,0 -10.88,-4.15 -10.88,-10.23"
     id="path10"
     inkscape:connector-curvature="0"
     style="fill:#ffffff" />
  <path
     class="cls-2"
     d="M 35.79,37.64 V 17.86 h 12 c 4.09,0 5.87,2.73 5.87,5 a 4.36,4.36 0 0 1 -3.38,4.54 4.67,4.67 0 0 1 3.76,4.84 c 0,2.76 -1.87,5.37 -5.84,5.37 M 47.59,24 A 1.14,1.14 0 0 0 46.4,22.87 h -4.62 v 2.31 H 46.4 A 1.17,1.17 0 0 0 47.59,24 Z m 0.39,7.45 a 1.28,1.28 0 0 0 -1.39,-1.27 h -4.8 v 2.52 h 4.8 a 1.24,1.24 0 0 0 1.38,-1.29 z"
     id="path12"
     inkscape:connector-curvature="0"
     style="fill:#ffffff" />
  <path
     class="cls-2"
     d="m 54.35,34.85 3.11,-4.45 a 9.21,9.21 0 0 0 6.37,2.6 c 1.13,0 2.19,-0.3 2.19,-1.07 0,-1.9 -11,0 -11,-7.77 0,-3.35 2.79,-6.56 8.21,-6.56 a 13,13 0 0 1 8.39,2.76 l -3.2,4.24 a 10,10 0 0 0 -5.81,-2 c -1.19,0 -1.51,0.39 -1.51,0.89 0,1.87 11,0.27 11,7.62 0,4.36 -3.23,6.88 -8.54,6.88 -4.21,0 -7.08,-1.25 -9.19,-3.14"
     id="path14"
     inkscape:connector-curvature="0"
     style="fill:#ffffff" />
  <path
     class="cls-2"
     d="M 95.19,27.47 A 11.18,11.18 0 1 1 84.02,16.16 11.21,11.21 0 0 1 95.19,27.47 m -21.58,0 a 11.53,11.53 0 0 0 20.82,0 11.57,11.57 0 0 0 -20.82,0 z m 16.4,0 a 6,6 0 1 1 -6,-6 6,6 0 0 1 6,6 z"
     id="path16"
     inkscape:connector-curvature="0"
     style="fill:#ffffff" />
</svg>
