<svg id="Layer_2" data-name="Layer 2" xmlns="http://www.w3.org/2000/svg" viewBox="0 0 110 55">
  <defs>
    <style>
      .cls-1 {
        fill: #fa4517;
      }

      .cls-2 {
        fill: #fff;
      }
    </style>
  </defs>
  <title>fubotv</title>
  <rect class="cls-1" width="110" height="55"/>
  <g id="layer1">
    <polygon id="Fill-4" class="cls-2" points="88.3 15.68 86.73 22.03 84.74 22.05 86.25 15.7 83.98 15.74 84.45 14 93.07 14.02 93.57 19.48 96.47 14.02 98.6 14.02 93.91 22.03 92.11 22.05 90.99 14.25 91.21 15.66 88.3 15.68"/>
    <path id="path35917" class="cls-2" d="M18.11,25.36l1-4.81,2.74.06c.84-5.23,4.29-7.23,10.18-6.45L31.11,19l-2.21,0a1.77,1.77,0,0,0-1.84,1.7l2.86,0L29,25.34l-2.93,0-3,15.15-5.14,0,2.93-15.22Zm13.5-5H37L34.94,31.06c-.41,2.26-.84,4.77,1.85,5.24A3.87,3.87,0,0,0,39,36c2.18-1,2.72-3.2,3.16-5.37l2.06-10.18,5.18,0-4,20-4.75.06.2-1a8.69,8.69,0,0,1-9.29.3c-2.23-1.58-2.74-4.34-2.18-7.83Zm15.6,20.08,5.08,0,.3-1.62c3.12,3.38,10.26,2.27,12.74,0A8.09,8.09,0,0,1,63.16,34a5.31,5.31,0,0,1-7,1.22C54.46,34,54,31.63,54.46,29.57a5.8,5.8,0,0,1,3.4-4.24,5.11,5.11,0,0,1,5.89,1.34c2.1,3.42.41,6.26,1.88,9.32a9,9,0,0,0,4.42,4.16,11.13,11.13,0,0,0,7.38.41,10.85,10.85,0,0,0,6.65-5.7,11.53,11.53,0,0,0,0-10.29c-2.74-5-10.19-6.22-14.8-2.68a10.87,10.87,0,0,1,2.05,4.82A5.22,5.22,0,0,1,78.7,26c1.49,1.31,1.9,4.36.79,6.77A5.52,5.52,0,0,1,75.07,36c-3.5.54-5.37-2.28-5.54-5.22s-.28-5-1.35-6.75A8.6,8.6,0,0,0,65,21.14a9.57,9.57,0,0,0-9,.13l1.38-7.06-5.1,0Z"/>
  </g>
</svg>
