<svg id="Layer_2" data-name="Layer 2" xmlns="http://www.w3.org/2000/svg" viewBox="0 0 110 55">
  <defs>
    <style>
      .cls-1 {
        fill: #472d8e;
      }

      .cls-2 {
        fill: #fff;
      }
    </style>
  </defs>
  <title>funimation</title>
  <rect class="cls-1" width="110" height="55"/>
  <path id="path3346" class="cls-2" d="M21.8,33.37a5.6,5.6,0,0,1-1.11-.22A3.93,3.93,0,0,1,18,30.23c-.18-.69-.17-.52-.19-4.55V21.92h1.55v3.59c0,2.35,0,3.7,0,3.9a2.75,2.75,0,0,0,2.13,2.43,2.8,2.8,0,0,0,1.74,0,2.6,2.6,0,0,0,2-2.08,27.46,27.46,0,0,0,.07-4.1V21.92h1.64v3.69c0,4,0,4-.18,4.68a3.93,3.93,0,0,1-2.83,2.9,6.63,6.63,0,0,1-2.12.18Zm39.16,0a4.35,4.35,0,0,1-1.73-.51,3.74,3.74,0,0,1-.92-.85,3.61,3.61,0,0,1-.43-.94,4.51,4.51,0,0,1-.09-1.38,2.58,2.58,0,0,1,.66-1.62A3.74,3.74,0,0,1,60.35,27a13.61,13.61,0,0,1,2.23-.38,11.43,11.43,0,0,0,2.12-.32,1,1,0,0,0,.54-.54,1.63,1.63,0,0,0,.07-.66,2.1,2.1,0,0,0-.07-.7,1.85,1.85,0,0,0-1.69-1.3,3.61,3.61,0,0,0-3.1.66,2.41,2.41,0,0,0-.61,1.62v.17H58.22v-.08a6.11,6.11,0,0,1,.28-1.39,3.46,3.46,0,0,1,2-2.05,6.65,6.65,0,0,1,2.82-.36,3.71,3.71,0,0,1,2.65,1,3,3,0,0,1,.87,1.56c0,.19,0,.62.07,3.64,0,3.39,0,3.42.09,3.55.16.32.56.4,1,.2l.12-.05V33l-.27,0a5.63,5.63,0,0,1-1.3,0,1.37,1.37,0,0,1-.92-.69,2.28,2.28,0,0,1-.18-.76c0-.08,0-.14,0-.13a2.36,2.36,0,0,0-.22.26,3.87,3.87,0,0,1-1.93,1.42,5.84,5.84,0,0,1-2.32.22ZM62.41,32a3.27,3.27,0,0,0,2.91-3.66c0-.53,0-1,0-1l-.16.06a11.58,11.58,0,0,1-2.39.46c-2.11.29-3.11.78-3.35,1.66a2.39,2.39,0,0,0,0,1A2.16,2.16,0,0,0,61.16,32a5.89,5.89,0,0,0,1.25,0Zm9,1.2a1.75,1.75,0,0,1-1.73-1.3c-.11-.43-.11-.68-.11-4.6V23.33H67.67V22h5.72v1.38H71.16V27a28.76,28.76,0,0,0,.09,4.28.75.75,0,0,0,.7.54,8.77,8.77,0,0,0,1.35-.06l.09,0v1.41l-.59,0a8.25,8.25,0,0,1-1.38,0ZM10.59,29.08c0-4.4,0-4.18.21-4.86.47-1.57,1.78-2.45,3.84-2.6a8.34,8.34,0,0,1,2,.12l.08,0v1.5l-.31-.05a7.65,7.65,0,0,0-1-.05,4.19,4.19,0,0,0-1,.07,2.48,2.48,0,0,0-2,1.51,3.76,3.76,0,0,0-.18,1.54V27h3.73V28.5H12.22v4.61H10.58v-4Zm17.59-1.55V22h1.61v1.46l.12-.18a4,4,0,0,1,.9-.88,4.33,4.33,0,0,1,1.68-.67,7.81,7.81,0,0,1,1.6,0,3.24,3.24,0,0,1,3,2.4c.2.76.19.58.21,5v4H35.72v-3.8c0-4.08,0-4-.19-4.64A2.17,2.17,0,0,0,34,23.14a3.78,3.78,0,0,0-1.89,0A3.13,3.13,0,0,0,30,25.39c-.19.63-.18.61-.19,4.3v3.42H28.18V27.53Zm10.3,0V22h1.61V33.11H38.48Zm3,0V22h1.48v1.53l.18-.25a3.67,3.67,0,0,1,2.11-1.46,4.46,4.46,0,0,1,3,.26,2.79,2.79,0,0,1,1.26,1.21c.07.14.14.26.14.26a1.78,1.78,0,0,0,.17-.23,3.79,3.79,0,0,1,2.5-1.57,6,6,0,0,1,1.58,0,3.21,3.21,0,0,1,2,1,3.8,3.8,0,0,1,.89,2.47c0,.26,0,2.17,0,4.22v3.75H55.16V29.22c0-2.49,0-4,0-4.18a2.06,2.06,0,0,0-1-1.75,2.47,2.47,0,0,0-1-.25,2.56,2.56,0,0,0-2.85,1.54,4.14,4.14,0,0,0-.29,1,27.07,27.07,0,0,0-.08,4v3.58H48.29V24.86l-.08-.28a2,2,0,0,0-.84-1.26A2.47,2.47,0,0,0,45.82,23a2.62,2.62,0,0,0-1.76.78,3.65,3.65,0,0,0-1,2.09A36.38,36.38,0,0,0,43,29.66v3.45H41.44V27.53Zm33.24,0V22h1.58V33.11H74.68Zm7.83,5.53a5.76,5.76,0,1,1,2-11.32,5.79,5.79,0,0,1,4.38,4.48A7.5,7.5,0,0,1,89,28.06a5.88,5.88,0,0,1-.56,1.86,5.34,5.34,0,0,1-1.2,1.6,5.56,5.56,0,0,1-3,1.51,7.69,7.69,0,0,1-1.73,0Zm1.41-2.24a2.46,2.46,0,0,0,1-.5,2,2,0,0,0,.5-.77c0-.12.07-.22.07-.23s-1,0-2.21,0H81.08l0,.12a2.06,2.06,0,0,0,.43.79,2.09,2.09,0,0,0,1.13.62,4.43,4.43,0,0,0,1.26,0Zm6.39-3.29V22h1.57v1.46l.17-.23a4,4,0,0,1,2.44-1.48,7,7,0,0,1,1.88,0,3.16,3.16,0,0,1,2.83,2.48c.18.75.18.65.19,4.93v4H97.81v-3.7c0-4,0-4.11-.17-4.69a2.14,2.14,0,0,0-1.73-1.63,4.76,4.76,0,0,0-1.36,0A3.14,3.14,0,0,0,92,25.58c-.15.56-.15.81-.15,4.25v3.28H90.31Z"/>
</svg>
