<svg id="Layer_2" data-name="Layer 2" xmlns="http://www.w3.org/2000/svg" xmlns:xlink="http://www.w3.org/1999/xlink" viewBox="0 0 110 55">
  <defs>
    <style>
      .cls-1 {
        fill: none;
      }

      .cls-2 {
        fill: #fff;
      }

      .cls-3 {
        fill: url(#New_Gradient_Swatch_5);
      }

      .cls-4 {
        clip-path: url(#clip-path);
      }

      .cls-5 {
        fill: url(#radial-gradient);
      }

      .cls-6 {
        fill: url(#radial-gradient-2);
      }

      .cls-7 {
        fill: url(#radial-gradient-3);
      }
    </style>
    <linearGradient id="New_Gradient_Swatch_5" data-name="New Gradient Swatch 5" x1="48.97" y1="-4431.7" x2="102.77" y2="-4431.7" gradientTransform="matrix(1, 0, 0, -1, 0, -4404.2)" gradientUnits="userSpaceOnUse">
      <stop offset="0" stop-color="#991eeb"/>
      <stop offset="0.4" stop-color="#5822b4"/>
      <stop offset="0.73" stop-color="#5822b4"/>
      <stop offset="1" stop-color="#991eeb"/>
    </linearGradient>
    <clipPath id="clip-path">
      <path class="cls-1" d="M70.91,25.24c-.09-3.92-2.87-6-6.27-6a6.37,6.37,0,0,0-4.7,1.84,6.37,6.37,0,0,0-4.7-1.84c-3.4,0-6.18,2.08-6.27,6v9a1.49,1.49,0,0,0,1.49,1.49h1.4a.26.26,0,0,0,.25-.26V25.27h0a3.13,3.13,0,0,1,6.26,0h0v9a1.49,1.49,0,0,0,1.48,1.49h1.41a.25.25,0,0,0,.25-.25V25.26h0a3.13,3.13,0,0,1,6.26,0h0v9a1.48,1.48,0,0,0,1.48,1.49h1.41a.25.25,0,0,0,.25-.25V25.25s0,0,0,0Zm31.68-5.75H100.2a2,2,0,0,0-1.65.88l-2.64,3.91a.88.88,0,0,1-1.45,0l-2.64-3.91a2,2,0,0,0-1.65-.88H87.79a.19.19,0,0,0-.16.29l4.71,7a1.49,1.49,0,0,1,0,1.67l-4.71,7a.19.19,0,0,0,.16.29h2.38a2,2,0,0,0,1.65-.88l2.64-3.91a.88.88,0,0,1,1.45,0l2.64,3.91a2,2,0,0,0,1.65.88h2.39a.19.19,0,0,0,.15-.29l-4.71-7a1.49,1.49,0,0,1,0-1.67l4.7-7A.19.19,0,0,0,102.59,19.49Zm-16,0h-1.4a1.49,1.49,0,0,0-1.46,1.17,7.41,7.41,0,0,0-4.52-1.44c-4.12,0-7.46,2.87-7.46,8.28s3.33,8.28,7.46,8.28a7.4,7.4,0,0,0,4.49-1.42,1.49,1.49,0,0,0,1.49,1.36h1.4a.26.26,0,0,0,.25-.26V19.74A.25.25,0,0,0,86.55,19.49ZM79.17,32.7c-2.46,0-4.46-1.8-4.46-5.19s2-5.2,4.46-5.2,4.46,1.8,4.46,5.2S81.63,32.7,79.17,32.7Z"/>
    </clipPath>
    <radialGradient id="radial-gradient" cx="-2668.39" cy="-4687.97" r="14.3" gradientTransform="matrix(0.67, 0, 0, -0.87, 1855.08, -4076.58)" gradientUnits="userSpaceOnUse">
      <stop offset="0" stop-color="#7ba7f2" stop-opacity="0.5"/>
      <stop offset="1" stop-color="#7ba7f2" stop-opacity="0"/>
    </radialGradient>
    <radialGradient id="radial-gradient-2" cx="71.49" cy="-5167.37" r="19.76" gradientTransform="matrix(1, 0, 0, -0.71, 0, -3624.13)" gradientUnits="userSpaceOnUse">
      <stop offset="0.2" stop-color="#7ba7f2"/>
      <stop offset="1" stop-color="#7ba7f2" stop-opacity="0"/>
    </radialGradient>
    <radialGradient id="radial-gradient-3" cx="83.63" cy="-4424.37" r="10.75" gradientTransform="matrix(1, 0, 0, -1, 0, -4404.2)" gradientUnits="userSpaceOnUse">
      <stop offset="0" stop-color="#7ba7f2"/>
      <stop offset="1" stop-color="#7ba7f2" stop-opacity="0"/>
    </radialGradient>
  </defs>
  <title>HBOmax</title>
  <rect width="110" height="55"/>
  <g>
    <path id="path3441" class="cls-2" d="M19,35.71H14.59V29.43H11.75v6.28H7.23V19.51h4.51v6h2.85v-6H19v16.2Zm20.18.07a8.28,8.28,0,0,0,8.19-8.32A8.21,8.21,0,0,0,31.75,23.9a4.73,4.73,0,0,0-4.34-4.4H19.89V35.71h7a4.87,4.87,0,0,0,4.86-4.57,8.24,8.24,0,0,0,7.43,4.64ZM26.34,29.19a1.39,1.39,0,0,1,0,2.75H24.1V29.19Zm0-6.08a1.37,1.37,0,0,1,0,2.71H24.1V23.11Zm3,4.35a3.54,3.54,0,0,0,1.69-1,7,7,0,0,0,0,2.24,3.32,3.32,0,0,0-1.69-1.25Zm5.77,0a4.12,4.12,0,1,1,4.12,4.13,4.12,4.12,0,0,1-4.12-4.13Zm4.11,3.24a3.24,3.24,0,1,0-3.25-3.24,3.24,3.24,0,0,0,3.25,3.24Z"/>
    <path id="_Compound_Path_" data-name="&lt;Compound Path&gt;" class="cls-3" d="M70.91,25.24c-.09-3.92-2.87-6-6.27-6a6.37,6.37,0,0,0-4.7,1.84,6.37,6.37,0,0,0-4.7-1.84c-3.4,0-6.18,2.08-6.27,6v9a1.49,1.49,0,0,0,1.49,1.49h1.4a.26.26,0,0,0,.25-.26V25.27h0a3.13,3.13,0,0,1,6.26,0h0v9a1.49,1.49,0,0,0,1.48,1.49h1.41a.25.25,0,0,0,.25-.25V25.26h0a3.13,3.13,0,0,1,6.26,0h0v9a1.48,1.48,0,0,0,1.48,1.49h1.41a.25.25,0,0,0,.25-.25V25.25s0,0,0,0Zm31.68-5.75H100.2a2,2,0,0,0-1.65.88l-2.64,3.91a.88.88,0,0,1-1.45,0l-2.64-3.91a2,2,0,0,0-1.65-.88H87.79a.19.19,0,0,0-.16.29l4.71,7a1.49,1.49,0,0,1,0,1.67l-4.71,7a.19.19,0,0,0,.16.29h2.38a2,2,0,0,0,1.65-.88l2.64-3.91a.88.88,0,0,1,1.45,0l2.64,3.91a2,2,0,0,0,1.65.88h2.39a.19.19,0,0,0,.15-.29l-4.71-7a1.49,1.49,0,0,1,0-1.67l4.7-7a.19.19,0,0,0-.14-.3Zm-16,0h-1.4a1.49,1.49,0,0,0-1.46,1.17,7.41,7.41,0,0,0-4.52-1.44c-4.12,0-7.46,2.87-7.46,8.28s3.33,8.28,7.46,8.28a7.4,7.4,0,0,0,4.49-1.42,1.49,1.49,0,0,0,1.49,1.36h1.4a.26.26,0,0,0,.25-.26V19.74A.25.25,0,0,0,86.55,19.49ZM79.17,32.7c-2.46,0-4.46-1.8-4.46-5.19s2-5.2,4.46-5.2,4.46,1.8,4.46,5.2S81.63,32.7,79.17,32.7Z"/>
    <g id="g3453">
      <g class="cls-4">
        <ellipse id="ellipse3466" class="cls-5" cx="61.92" cy="24.46" rx="9.61" ry="12.51"/>
      </g>
      <g class="cls-4">
        <ellipse id="ellipse3473" class="cls-6" cx="71.49" cy="34.88" rx="19.77" ry="13.99"/>
      </g>
      <g class="cls-4">
        <circle id="circle3480" class="cls-7" cx="83.63" cy="20.17" r="10.75"/>
      </g>
    </g>
  </g>
</svg>
