<svg id="Layer_2" data-name="Layer 2" xmlns="http://www.w3.org/2000/svg" viewBox="0 0 110 55">
  <defs>
    <style>
      .cls-1 {
        fill: #0d69c0;
      }

      .cls-2 {
        fill: #fefeff;
      }
    </style>
  </defs>
  <title>Hoopla</title>
  <rect class="cls-1" width="110" height="55"/>
  <g id="layer1">
    <path id="path3464" class="cls-2" d="M12.5,37.46V10.92h4.77v9.35a9,9,0,0,1,5.79-2.45,6.32,6.32,0,0,1,6,4,9.81,9.81,0,0,1,15.05-.28,9.07,9.07,0,0,1,7.27-3.38,10.38,10.38,0,0,1,7.79,3.76,9.94,9.94,0,0,1,7.69-3.85,10.4,10.4,0,0,1,7.82,3.85V10.78h4.87V22.22A8.66,8.66,0,0,1,86.89,18a7.09,7.09,0,0,1,5.89,2.5v-2H97.5V37.13H92.78v-2A7.75,7.75,0,0,1,87,37.6c-4.92,0-7.46-4.45-7.46-4.45V37.6H74.66V33.75a9.42,9.42,0,0,1-7.87,3.85,10.43,10.43,0,0,1-4.22-.93v7.55H57.71v-8.8a9.54,9.54,0,0,1-6.35,2.27A9.27,9.27,0,0,1,44,34.36a9.71,9.71,0,0,1-7.55,3.33,9.46,9.46,0,0,1-7-3.15v2.92H24.73v-10s.37-5.31-3.24-5.23c-4.08.09-4.17,5-4.17,5l-.1,10.28Zm39-4.12A5.07,5.07,0,0,0,56.55,28c0-3.24-2.13-5.46-5.07-5.42A5.06,5.06,0,0,0,46.41,28,5,5,0,0,0,51.48,33.34ZM67,33.24A5.07,5.07,0,0,0,72,27.87c0-3.24-2.13-5.46-5.07-5.42a5.06,5.06,0,0,0-5.07,5.42A5,5,0,0,0,67,33.24Zm21,0A5.17,5.17,0,0,0,93,27.87c0-3.24-2-5.56-5.08-5.56s-5.07,2.18-5.07,5.56A5.07,5.07,0,0,0,87.93,33.29Zm-51.27.09c2.77,0,5-2.08,5-5.46s-2.25-5.42-5-5.42-5,2-5,5.42S33.88,33.38,36.66,33.38Z"/>
  </g>
</svg>
