<svg id="Layer_2" data-name="Layer 2" xmlns="http://www.w3.org/2000/svg" viewBox="0 0 110 55"><defs><style>.cls-1{fill:#f2f2f2;}.cls-2{fill:#069de0;}.cls-3{fill:#6e55dc;}.cls-4{fill:#05ac3f;}.cls-5{fill:#ef1541;}.cls-6{fill:#ff7112;}.cls-7{fill:#fccc12;}</style></defs><rect width="110" height="55"/><path id="path28" class="cls-1" d="M15.62,21.39a5.75,5.75,0,0,0-5.75,5.75V40.43H12.6V33.05l1,1.06,4-1.58a5.75,5.75,0,0,0-2-11.14Zm1,8.73-4,1.58V27.14a3,3,0,1,1,6,0,3.09,3.09,0,0,1-2,3Zm47.08-8.73a5.75,5.75,0,1,0,5.75,5.75A5.75,5.75,0,0,0,63.72,21.39Zm0,8.9a3.16,3.16,0,1,1,3-3.15A3,3,0,0,1,63.72,30.29ZM76.16,24a2.94,2.94,0,0,1,2.66,1.62L81,24a5.75,5.75,0,1,0,0,6.37l-2.13-1.63a2.94,2.94,0,0,1-2.66,1.62,3,3,0,0,1-3-3.16A3.09,3.09,0,0,1,76.16,24ZM52.91,24a2.93,2.93,0,0,1,2.65,1.62L57.7,24a5.75,5.75,0,1,0,0,6.37l-2.14-1.63a2.93,2.93,0,0,1-2.65,1.62,3,3,0,0,1-3-3.16A3.08,3.08,0,0,1,52.91,24Zm-9.53-1.22A4.64,4.64,0,0,0,40,21.39a5.76,5.76,0,0,0,0,11.49,4.61,4.61,0,0,0,3.43-1.37v1h2.73V21.74H43.38Zm-3,7.53a3.16,3.16,0,1,1,3-3.15A3,3,0,0,1,40.36,30.29Zm48.17-3.54H87.31l4.73-5H88.53l-3.82,4.12v-10H82V32.55h2.72V29.47l1.5-1.59,3.21,4.67h3.3ZM28,21.39a5.75,5.75,0,1,0,0,11.49,5.83,5.83,0,0,0,4.69-2.31l-2.19-1.52a3.06,3.06,0,0,1-5.3-.67H33.5a5.74,5.74,0,0,0,.13-1.24A5.64,5.64,0,0,0,28,21.39Zm-2.78,4.5A3,3,0,0,1,28,24a2.79,2.79,0,0,1,2.69,1.91Z"/><path id="path30" class="cls-2" d="M97.67,30.92a1.65,1.65,0,1,0,1.66,1.65A1.66,1.66,0,0,0,97.67,30.92Z"/><path id="path32" class="cls-3" d="M97.67,26.41a1.65,1.65,0,1,0,1.66,1.65A1.66,1.66,0,0,0,97.67,26.41Z"/><path id="path34" class="cls-4" d="M97.67,35.42a1.66,1.66,0,1,0,1.66,1.66A1.67,1.67,0,0,0,97.67,35.42Z"/><path id="path36" class="cls-5" d="M97.67,21.89a1.65,1.65,0,1,0,1.66,1.65A1.66,1.66,0,0,0,97.67,21.89Z"/><path id="path38" class="cls-6" d="M97.67,17.38A1.65,1.65,0,1,0,99.33,19a1.66,1.66,0,0,0-1.66-1.65Z"/><path id="path40" class="cls-7" d="M97.67,12.88a1.65,1.65,0,1,0,1.66,1.65A1.66,1.66,0,0,0,97.67,12.88Z"/></svg>