<svg id="Layer_2" data-name="Layer 2" xmlns="http://www.w3.org/2000/svg" xmlns:xlink="http://www.w3.org/1999/xlink" viewBox="0 0 110 55"><defs><style>.cls-1{fill:url(#linear-gradient);}.cls-2{fill:#fff;}</style><linearGradient id="linear-gradient" y1="27.5" x2="110" y2="27.5" gradientUnits="userSpaceOnUse"><stop offset="0" stop-color="#1e82da"/><stop offset="1" stop-color="#0963c6"/></linearGradient></defs><rect class="cls-1" width="110" height="55"/><g id="layer1"><g id="g36023"><path id="path35984" class="cls-2" d="M82.9,21.09a6.84,6.84,0,1,0,7,6.84,6.93,6.93,0,0,0-7-6.84m9.36,6.84a9.36,9.36,0,1,1-9.36-9.12,9.24,9.24,0,0,1,9.36,9.12"/><path id="Fill-3" class="cls-2" d="M63.37,12.54a1.46,1.46,0,1,1-1.46-1.42,1.44,1.44,0,0,1,1.46,1.42"/><path id="path35987" class="cls-2" d="M39.88,10.86a.2.2,0,0,0-.21.19V35.84a1.13,1.13,0,0,0,1.17,1.1,1.1,1.1,0,0,0,1.17-1h0V27.15a6.22,6.22,0,0,1,6.45-6c3.51,0,5.25,2.53,5.26,5.95v8.69A1.2,1.2,0,0,0,54.87,37a1.14,1.14,0,0,0,1.18-1.06v-9.2c0-6.19-4.09-7.9-7.6-7.9a7.78,7.78,0,0,0-6.44,3V13.68a2.64,2.64,0,0,0-2.12-2.82Z"/><path id="path35989" class="cls-2" d="M60.73,35.91h0a1.21,1.21,0,0,0,1.18,1.14,1.18,1.18,0,0,0,1.16-1.14h0V21.78A2.64,2.64,0,0,0,61,19h0a.2.2,0,0,0-.21.2Z"/><path id="path35991" class="cls-2" d="M67.75,35.91h0A1.2,1.2,0,0,0,68.93,37a1.18,1.18,0,0,0,1.16-1.13V13.67A2.64,2.64,0,0,0,68,10.85h0a.21.21,0,0,0-.21.19Z"/><path id="path35993" class="cls-2" d="M20.08,43.33A2.65,2.65,0,0,1,18,46.15h0a.2.2,0,0,1-.2-.19v-18a9.12,9.12,0,0,1,9.36-9.12,9.12,9.12,0,1,1,0,18.24c-3.76,0-4.32-1.91-3.93-3.11h0a.25.25,0,0,1,.24-.17.24.24,0,0,1,.14.05l0,0a5.42,5.42,0,0,0,3.51,1,7.07,7.07,0,0,0,7-6.89,7,7,0,0,0-14,0Z"/></g></g></svg>