<svg id="Layer_2" data-name="Layer 2" xmlns="http://www.w3.org/2000/svg" xmlns:xlink="http://www.w3.org/1999/xlink" viewBox="0 0 110 55"><defs><style>.cls-1{fill:#282a2d;}.cls-2{fill:#fff;}.cls-3{fill-rule:evenodd;fill:url(#radial-gradient);}</style><radialGradient id="radial-gradient" cx="4783.71" cy="-3596.64" r="50.78" gradientTransform="matrix(0.26, 0, 0, -0.42, -1156.75, -1500.99)" gradientUnits="userSpaceOnUse"><stop offset="0" stop-color="#f9be03"/><stop offset="1" stop-color="#cc7c19"/></radialGradient></defs><rect class="cls-1" width="110" height="55"/><path class="cls-2" d="M91,15.83H84.22L77.46,27.49l6.76,11.66H91L84.22,27.5Z"/><path class="cls-3" d="M70,15.83h6.77L84.22,27.5,76.76,39.17H70L77.46,27.5Z"/><path class="cls-2" d="M67.66,39.15H54.2V15.83H67.66v4.06h-8.5V25h7.91v4H59.16v6h8.5Zm-30.19,0V15.83h5V35.07h9.45v4.08Z"/><path class="cls-2" d="M32.78,28.87q-2.36,2-6.7,2H24v8.29H19V26.8h6.76c4.14,0,4.36-2.58,4.36-3.46s0-3.42-3.68-3.46H19V15.83h7.45q4.25,0,6.45,1.83a6.67,6.67,0,0,1,2.21,5.45,7.16,7.16,0,0,1-2.35,5.76Z"/><path class="cls-2" d="M19,18.4H24v10H19Z"/></svg>