<svg id="Layer_2" data-name="Layer 2" xmlns="http://www.w3.org/2000/svg" viewBox="0 0 110 55"><defs><style>.cls-1{fill:#fff;}.cls-2{fill:#ff2cd2;}.cls-3{fill:#5e00ff;}.cls-4{fill:#ffde2b;}.cls-5{fill:#ff6700;}</style></defs><rect width="110" height="55"/><path id="Shape" class="cls-1" d="M67.12,20.14a7.36,7.36,0,1,0,7.36,7.36,7.36,7.36,0,0,0-7.36-7.36Zm0,10.74A3.38,3.38,0,1,1,70.5,27.5a3.34,3.34,0,0,1-1,2.39,3.38,3.38,0,0,1-2.39,1ZM55.33,24.21v4.56c0,1.4.62,2,2,2h1.41v3.79h-2a5.59,5.59,0,0,1-4.06-1.45,5.52,5.52,0,0,1-1.45-4V24.21H48.67V20.42H51.2V18.37l4.13-1.66v3.71h3.43v3.79Zm-8.28-3.79v7.75a6.69,6.69,0,1,1-13.38,0V22.23l4.1-1.65v7.71a2.59,2.59,0,0,0,5.18,0V22.08ZM31.9,16.71V34.58H27.78V18.37ZM19.31,20.14A5.8,5.8,0,0,0,15,21.84l-.57-1.38-3.34,1.35V38.29h4.13V33.42a5.86,5.86,0,0,0,4,1.44,6.6,6.6,0,0,0,4.9-2.16,7.65,7.65,0,0,0,1.94-5.19C26.15,23.38,23.15,20.14,19.31,20.14Zm-.63,10.74a3.38,3.38,0,1,1,3.43-3.38A3.41,3.41,0,0,1,18.68,30.88Z"/><path id="Path" class="cls-2" d="M85.07,27.5c0-5.78.55-7.24.55-7.24l-1.72,0a7.2,7.2,0,1,0,0,14.4l1.72,0s-.55-1.46-.55-7.24"/><path id="Path-2" data-name="Path" class="cls-3" d="M85.07,27.5a11.12,11.12,0,0,1,2.51-7.28l-2,0a7.24,7.24,0,1,0,0,14.48l2,0a11.12,11.12,0,0,1-2.51-7.28"/><path id="Path-3" data-name="Path" class="cls-4" d="M85.07,27.5a8.33,8.33,0,0,1,4.48-7.32l-2,0a7.28,7.28,0,1,0,0,14.56l2,0a8.33,8.33,0,0,1-4.48-7.32"/><path id="Path-4" data-name="Path" class="cls-5" d="M85.07,27.5c0-3.4,2.22-6.94,6.16-7.35l-1.68,0a7.32,7.32,0,1,0,0,14.64l1.69,0c-3.94-.41-6.17-4-6.17-7.35"/><path id="Shape-2" data-name="Shape" class="cls-1" d="M91.51,20.14a7.36,7.36,0,1,0,7.36,7.36,7.37,7.37,0,0,0-7.36-7.36Zm2.9,11H93l-2-4.75h-2v2.45a.77.77,0,0,0,.86.86h.87v1.44H89.77a2,2,0,0,1-2.23-2.19V26.34H86.45V25h1.09V24l1.57-.63V25h3.1l1.52,4,1.53-4H97Z"/></svg>