<?xml version="1.0" encoding="UTF-8" standalone="no"?>
<svg
   xmlns:dc="http://purl.org/dc/elements/1.1/"
   xmlns:cc="http://creativecommons.org/ns#"
   xmlns:rdf="http://www.w3.org/1999/02/22-rdf-syntax-ns#"
   xmlns:svg="http://www.w3.org/2000/svg"
   xmlns="http://www.w3.org/2000/svg"
   xmlns:sodipodi="http://sodipodi.sourceforge.net/DTD/sodipodi-0.dtd"
   xmlns:inkscape="http://www.inkscape.org/namespaces/inkscape"
   id="Layer_2"
   data-name="Layer 2"
   viewBox="0 0 110 55"
   version="1.1"
   sodipodi:docname="showtime.svg"
   width="110"
   height="55"
   inkscape:version="0.92.3 (2405546, 2018-03-11)">
  <metadata
     id="metadata25">
    <rdf:RDF>
      <cc:Work
         rdf:about="">
        <dc:format>image/svg+xml</dc:format>
        <dc:type
           rdf:resource="http://purl.org/dc/dcmitype/StillImage" />
      </cc:Work>
    </rdf:RDF>
  </metadata>
  <sodipodi:namedview
     pagecolor="#ffffff"
     bordercolor="#666666"
     borderopacity="1"
     objecttolerance="10"
     gridtolerance="10"
     guidetolerance="10"
     inkscape:pageopacity="0"
     inkscape:pageshadow="2"
     inkscape:window-width="640"
     inkscape:window-height="480"
     id="namedview23"
     showgrid="false"
     inkscape:zoom="2.4912281"
     inkscape:cx="56.05"
     inkscape:cy="26.5"
     inkscape:window-x="0"
     inkscape:window-y="0"
     inkscape:window-maximized="0"
     inkscape:current-layer="Layer_2" />
  <defs
     id="defs4">
    <style
       id="style2">.cls-1{fill:#ed1c24;}.cls-2{fill:#fff;}</style>
  </defs>
  <title
     id="title6">Artboard 7 copy</title>
  <rect
     class="cls-1"
     x="0"
     y="0"
     width="110"
     height="55"
     id="rect8"
     style="fill:#ed1c24" />
  <path
     class="cls-2"
     d="m 18.69,37.74 a 7.49,7.49 0 0 0 1,-0.27 4.38,4.38 0 0 0 2.6,-3 6,6 0 0 0 -1.38,-5.81 14.67,14.67 0 0 0 -2.47,-2.05 8.44,8.44 0 0 1 -1.92,-1.72 3,3 0 0 1 -0.47,-2.65 1.33,1.33 0 0 1 1.7,-1.05 1.23,1.23 0 0 1 0.83,0.75 4.37,4.37 0 0 1 0.31,1.57 c 0,0.18 0,0.37 0,0.57 h 3.14 c 0,-0.27 0,-0.54 0,-0.81 A 8.64,8.64 0 0 0 21.55,20.6 3.7,3.7 0 0 0 18.84,18.15 L 18.64,18.1 A 14.27,14.27 0 0 1 29,13.3 14.13,14.13 0 0 1 40.32,18.12 l -0.31,0.08 a 4.18,4.18 0 0 0 -2.21,1.55 9.36,9.36 0 0 0 -1.66,3.5 19.11,19.11 0 0 0 -0.55,5.93 15.37,15.37 0 0 0 0.87,4.56 7.67,7.67 0 0 0 2,3.2 4.82,4.82 0 0 0 0.76,0.55 c 0.26,0.15 0.55,0.26 0.86,0.4 A 14.58,14.58 0 0 1 18.7,37.73 Z m 12.08,-19.2 v 7.72 h -3.6 v -7.71 h -3.34 c 0,0.08 0,0.15 0,0.22 q 0,9.37 0,18.74 c 0,0.2 0.06,0.25 0.25,0.25 h 2.87 0.24 v -8.3 h 3.6 v 0.31 c 0,2.58 0,5.15 0,7.73 0,0.24 0.07,0.28 0.29,0.28 h 3.06 V 18.54 Z"
     id="path10"
     inkscape:connector-curvature="0"
     style="fill:#ffffff" />
  <path
     class="cls-2"
     d="m 53.38,25.66 c 0,0.27 -0.09,0.53 -0.12,0.8 l -0.75,5.23 -0.78,5.45 c 0,0.32 0,0.32 -0.36,0.32 h -2.44 c -0.15,0 -0.22,0 -0.24,-0.2 -0.15,-1.2 -0.32,-2.39 -0.47,-3.58 L 47.67,29.5 47.15,25.61 46.59,21.41 46.26,19 a 0.73,0.73 0 0 1 0,-0.12 h 3 l 1.2,10.91 h 0.08 l 1.62,-10.92 h 3.05 l 1.48,10.92 h 0.07 c 0,-0.11 0.05,-0.21 0.07,-0.32 q 0.29,-2.37 0.58,-4.74 l 0.64,-4.64 c 0,-0.37 0.09,-0.74 0.13,-1.11 0,-0.12 0.05,-0.18 0.18,-0.17 h 14.69 c 0,0.1 0,0.18 0,0.27 q 0,9 0,18.1 c 0,0.21 -0.05,0.28 -0.27,0.28 -0.95,0 -1.89,0 -2.84,0 -0.23,0 -0.28,-0.07 -0.28,-0.29 q 0,-7.57 0,-15.15 c 0,-0.35 0,-0.35 -0.35,-0.35 h -2.48 c -0.33,0 -0.33,0 -0.33,0.32 q 0,7.51 0,15 c 0,0.51 0.07,0.44 -0.45,0.45 -0.88,0 -1.76,0 -2.64,0 -0.22,0 -0.29,-0.06 -0.29,-0.29 q 0,-6.94 0,-13.87 c 0,-0.42 0,-0.83 0,-1.25 0,-0.42 0,-0.38 -0.37,-0.38 h -2.38 c -0.13,0 -0.18,0 -0.19,0.18 q -0.44,3.46 -0.9,6.92 -0.5,3.85 -1,7.7 c 0,0.27 -0.07,0.53 -0.1,0.8 -0.03,0.27 -0.08,0.19 -0.21,0.19 h -2.72 c -0.14,0 -0.19,0 -0.21,-0.19 q -0.48,-3.59 -1,-7.18 l -0.58,-4.24 a 1.71,1.71 0 0 0 0,-0.19 z"
     id="path12"
     inkscape:connector-curvature="0"
     style="fill:#ffffff" />
  <path
     class="cls-2"
     d="m 82.45,18.83 h 4.4 v 18.61 h -0.26 c -0.82,0 -1.64,0 -2.46,0 -0.23,0 -0.29,-0.06 -0.29,-0.29 q 0,-6.55 0,-13.09 v -0.28 h -0.07 c 0,0.23 -0.09,0.46 -0.13,0.68 l -1.85,11 c -0.1,0.59 -0.21,1.17 -0.3,1.76 0,0.15 -0.09,0.2 -0.23,0.2 h -1.5 c -0.15,0 -0.21,-0.06 -0.23,-0.2 Q 78.97,33.81 78.41,30.4 l -1.08,-6.51 a 0.16,0.16 0 0 0 -0.1,-0.12 v 0.26 q 0,6.55 0,13.09 c 0,0.3 0,0.3 -0.29,0.3 -0.64,0 -1.28,0 -1.92,0 -0.22,0 -0.29,0 -0.29,-0.28 q 0,-4.64 0,-9.27 0,-4.39 0,-8.78 v -0.3 h 4.52 l 1.53,9.53 h 0.08 z"
     id="path14"
     inkscape:connector-curvature="0"
     style="fill:#ffffff" />
  <path
     class="cls-2"
     d="m 91.96,26.46 h 3.14 v 3 h -3.14 v 5.1 h 4.45 c 0,0.09 0,0.16 0,0.22 0,0.8 0,1.61 0,2.41 0,0.17 0,0.23 -0.22,0.23 H 88.78 88.57 V 18.84 h 7.65 v 2.83 h -4.26 z"
     id="path16"
     inkscape:connector-curvature="0"
     style="fill:#ffffff" />
  <path
     class="cls-2"
     d="m 38.86,28 a 12.92,12.92 0 0 1 0.74,-4.84 5.5,5.5 0 0 1 0.74,-1.28 1.34,1.34 0 0 1 1.46,-0.55 1.54,1.54 0 0 1 0.86,0.64 6.06,6.06 0 0 1 0.93,2.25 15.41,15.41 0 0 1 0.46,4.19 11.71,11.71 0 0 1 -0.89,4.45 A 4.52,4.52 0 0 1 42.43,34 1.26,1.26 0 0 1 40.52,34.07 3.68,3.68 0 0 1 39.6,32.59 11.63,11.63 0 0 1 38.94,29.37 C 38.89,28.84 38.87,28.33 38.86,28 Z"
     id="path18"
     inkscape:connector-curvature="0"
     style="fill:#ffffff" />
  <path
     class="cls-2"
     d="m 14.87,27.69 c 0.31,0.24 0.6,0.5 0.92,0.73 0.79,0.6 1.61,1.17 2.38,1.8 a 3,3 0 0 1 1.12,2.58 2.33,2.33 0 0 1 -0.34,1.2 1.42,1.42 0 0 1 -2,0.46 2.94,2.94 0 0 1 -1,-1.11 8.24,8.24 0 0 1 -0.93,-3 C 14.9,29.48 14.86,28.59 14.78,27.71 Z"
     id="path20"
     inkscape:connector-curvature="0"
     style="fill:#ffffff" />
</svg>
