<?xml version="1.0" encoding="UTF-8" standalone="no"?>
<svg xmlns:dc="http://purl.org/dc/elements/1.1/" xmlns:cc="http://creativecommons.org/ns#" xmlns:rdf="http://www.w3.org/1999/02/22-rdf-syntax-ns#" xmlns:svg="http://www.w3.org/2000/svg" xmlns="http://www.w3.org/2000/svg" xmlns:sodipodi="http://sodipodi.sourceforge.net/DTD/sodipodi-0.dtd" xmlns:inkscape="http://www.inkscape.org/namespaces/inkscape" id="Layer_2" data-name="Layer 2" viewBox="0 0 110 55" version="1.1" sodipodi:docname="trutv.svg" width="110" height="55" inkscape:version="0.92.3 (2405546, 2018-03-11)">
  <metadata id="metadata21">
    <rdf:RDF>
      <cc:Work rdf:about="">
        <dc:format>image/svg+xml</dc:format>
        <dc:type rdf:resource="http://purl.org/dc/dcmitype/StillImage"/>
      </cc:Work>
    </rdf:RDF>
  </metadata>
  <sodipodi:namedview pagecolor="#ffffff" bordercolor="#666666" borderopacity="1" objecttolerance="10" gridtolerance="10" guidetolerance="10" inkscape:pageopacity="0" inkscape:pageshadow="2" inkscape:window-width="640" inkscape:window-height="480" id="namedview19" showgrid="false" inkscape:zoom="2.4912281" inkscape:cx="56" inkscape:cy="26.5" inkscape:window-x="0" inkscape:window-y="0" inkscape:window-maximized="0" inkscape:current-layer="Layer_2"/>
  <defs id="defs4">
    <style id="style2">.cls-1{fill:#1c1c67;}.cls-2{fill:#fff;}</style>
  </defs>
  <title id="title6">Artboard 103 copy 161</title>
  <rect class="cls-1" x="0" y="0" width="110" height="55" id="rect8" style="fill:#1c1c67"/>
  <path class="cls-2" d="M 78.22,15.34 A 7.77,7.77 0 1 0 86,23.11 7.77,7.77 0 0 0 78.22,15.34 Z m 3.88,12.1 h -2 l -2,-5.16 h -2 v 5.16 H 74 v -5.16 h -2.33 v -2 h 8 l 1.42,3.86 1.42,-3.86 h 2.29 z" id="path10" inkscape:connector-curvature="0" style="fill:#ffffff"/>
  <path class="cls-2" d="M 37.11,27.19 H 33.78 V 40.66 H 27.6 V 27.19 h -3.07 v -4.74 h 3.07 v -5.11 h 6.18 v 5.12 h 3.33 z" id="path12" inkscape:connector-curvature="0" style="fill:#ffffff"/>
  <path class="cls-2" d="M 69.07,22.14 V 40.35 H 63.18 V 38.13 H 63.09 A 4.6,4.6 0 0 1 60.5,40.57 7.67,7.67 0 0 1 57.68,41.02 9.32,9.32 0 0 1 54.83,40.58 6.52,6.52 0 0 1 51.56,38.39 7.83,7.83 0 0 1 50,35.48 14.61,14.61 0 0 1 49.68,32 v -9.86 h 6.24 V 31 a 6.12,6.12 0 0 0 0.42,2.62 2.92,2.92 0 0 0 2.92,1.55 3.13,3.13 0 0 0 2.47,-1.13 5.4,5.4 0 0 0 1.1,-3.61 v -8.29 z" id="path14" inkscape:connector-curvature="0" style="fill:#ffffff"/>
  <path class="cls-2" d="m 43.72,25.34 h 0.09 a 5.3,5.3 0 0 1 1.4,-1.8 5.85,5.85 0 0 1 3.6,-1.11 v 6.24 a 6.88,6.88 0 0 0 -3.39,0.77 3.35,3.35 0 0 0 -1.32,3 v 8.2 H 37.92 V 22.45 h 5.8 z" id="path16" inkscape:connector-curvature="0" style="fill:#ffffff"/>
</svg>