<svg id="Layer_2" data-name="Layer 2" xmlns="http://www.w3.org/2000/svg" xmlns:xlink="http://www.w3.org/1999/xlink" viewBox="0 0 110 55">
  <defs>
    <style>
      .cls-1 {
        fill: url(#linear-gradient);
      }

      .cls-2 {
        fill: #fff;
      }
    </style>
    <linearGradient id="linear-gradient" y1="27.5" x2="110" y2="27.5" gradientUnits="userSpaceOnUse">
      <stop offset="0" stop-color="#ef2a79"/>
      <stop offset="1" stop-color="#ff3f19"/>
    </linearGradient>
  </defs>
  <title>tubi</title>
  <rect class="cls-1" width="110" height="55"/>
  <path class="cls-2" d="M86.08,21.4H81.81V40.31a.62.62,0,0,0,.61.61h3.66a.61.61,0,0,0,.61-.61V22a.61.61,0,0,0-.61-.61M69.63,36a4.88,4.88,0,1,1,4.87-4.88A4.88,4.88,0,0,1,69.63,36m0-14.64a9.79,9.79,0,0,0-4,.86h0a.54.54,0,0,1-.25.06.61.61,0,0,1-.61-.61v-7a.61.61,0,0,0-.61-.61H59.88V31.16a9.75,9.75,0,1,0,9.75-9.76m-32,17.67h0l-1.83-3.19h0a.61.61,0,0,0-.77-.25,4.87,4.87,0,0,1-6.83-4.47V26.89a.61.61,0,0,1,.61-.61h6.09a.61.61,0,0,0,.61-.61V22a.61.61,0,0,0-.61-.61H28.8a.61.61,0,0,1-.61-.61v-6.1a.62.62,0,0,0-.61-.61H23.31V31.16a9.76,9.76,0,0,0,9.75,9.76,9.65,9.65,0,0,0,4.3-1,.61.61,0,0,0,.28-.82l0,0M56.83,21.4H52.56v9.76a4.88,4.88,0,1,1-9.75,0V22a.61.61,0,0,0-.61-.61H37.94v9.76a9.75,9.75,0,1,0,19.5,0V22a.61.61,0,0,0-.61-.61m27.42-7.32a2.44,2.44,0,1,0,2.44,2.44,2.44,2.44,0,0,0-2.44-2.44"/>
</svg>
